Coordinates
version=1
nRows=13
nColumns=40
inDegrees=yes

Units are S.I. units (second, meters, Newtons, ...)
Angles are in degrees.

endheader
time	pelvis_tilt	pelvis_list	pelvis_rotation	pelvis_tx	pelvis_ty	pelvis_tz	hip_flexion_r	hip_adduction_r	hip_rotation_r	knee_angle_r	knee_angle_r_beta	ankle_angle_r	subtalar_angle_r	mtp_angle_r	hip_flexion_l	hip_adduction_l	hip_rotation_l	knee_angle_l	knee_angle_l_beta	ankle_angle_l	subtalar_angle_l	mtp_angle_l	lumbar_extension	lumbar_bending	lumbar_rotation	arm_flex_r	arm_add_r	arm_rot_r	elbow_flex_r	pro_sup_r	wrist_flex_r	wrist_dev_r	arm_flex_l	arm_add_l	arm_rot_l	elbow_flex_l	pro_sup_l	wrist_flex_l	wrist_dev_l
      2.07500005	    -24.51827130	      8.55766699	     -6.75655229	     -3.32569667	      0.93549956	      0.32922024	     -8.60900307	     -8.71433956	      4.83546271	     12.38516686	     12.38516686	    -30.32752735	      0.00000000	      0.00000000	     81.27454589	     -4.45308379	     -1.36080867	     84.63777338	     84.63777338	      7.81933144	      0.00000000	      0.00000000	    -17.48333748	    -15.57460048	     -0.50967079	     79.13454001	    -14.21799387	      8.41355327	    130.91592464	     29.78518222	      0.00000000	      0.00000000	    -77.47810787	    -10.92458192	    -43.07847140	     72.19022566	     87.10107293	      0.00000000	      0.00000000
      2.08000005	    -24.14748635	      8.55654554	     -6.17096366	     -3.29518252	      0.94008984	      0.32973936	     -9.49594118	     -8.53277137	      4.93538765	     13.52758087	     13.52758087	    -33.30578125	      0.00000000	      0.00000000	     80.02447241	     -4.38267869	     -2.19529558	     80.29380100	     80.29380100	      7.35916638	      0.00000000	      0.00000000	    -18.03284905	    -15.82056267	     -1.25126605	     76.07707680	    -14.27645018	      8.60485901	    131.72034331	     29.89197539	      0.00000000	      0.00000000	    -76.28883098	    -11.08614124	    -42.98168888	     72.71137361	     86.93996380	      0.00000000	      0.00000000
      2.08500005	    -23.63043644	      8.48407729	     -5.84487106	     -3.26473552	      0.94519764	      0.33046167	    -10.20139842	     -8.26513965	      5.29812574	     15.18071650	     15.18071650	    -35.62802995	      0.00000000	      0.00000000	     78.38239723	     -4.53151569	     -3.12435378	     75.90392110	     75.90392110	      6.83320696	      0.00000000	      0.00000000	    -18.78648677	    -16.01990932	     -1.69605483	     72.70938988	    -14.34941428	      8.76540502	    132.12579235	     29.96615104	      0.00000000	      0.00000000	    -74.68399754	    -11.46733078	    -42.63413515	     73.21263365	     86.78883847	      0.00000000	      0.00000000
      2.09000005	    -22.98694377	      8.35004720	     -5.72510152	     -3.23437332	      0.95069849	      0.33130581	    -10.70928709	     -7.92256201	      5.80727990	     17.37211855	     17.37211855	    -37.26339553	      0.00000000	      0.00000000	     76.40291041	     -4.83714100	     -4.14716158	     71.50979279	     71.50979279	      6.23597570	      0.00000000	      0.00000000	    -19.72378332	    -16.17209471	     -1.87317353	     69.09624749	    -14.42805560	      8.82210868	    132.07859946	     30.18564367	      0.00000000	      0.00000000	    -72.69915542	    -12.06561737	    -42.02486932	     73.72685913	     86.29004929	      0.00000000	      0.00000000
      2.09500005	    -22.25065937	      8.16985998	     -5.74451305	     -3.20412046	      0.95644248	      0.33216826	    -10.99097219	     -7.52109204	      6.32082513	     20.12298695	     20.12298695	    -38.21721929	      0.00000000	      0.00000000	     74.15574283	     -5.22490822	     -5.26091724	     67.15373629	     67.15373629	      5.55802409	      0.00000000	      0.00000000	    -20.80986000	    -16.27939468	     -1.82664225	     65.29999043	    -14.50600502	      8.69492771	    131.52247010	     30.97720819	      0.00000000	      0.00000000	    -70.36810101	    -12.87818481	    -41.18088165	     74.25399281	     85.84315220	      0.00000000	      0.00000000
      2.10000005	    -21.46818331	      7.96176617	     -5.83144140	     -3.17400943	      0.96225080	      0.33294073	    -11.01006424	     -7.08085094	      6.70961615	     23.43144244	     23.43144244	    -38.54617586	      0.00000000	      0.00000000	     71.72648798	     -5.61970051	     -6.45372908	     62.88338291	     62.88338291	      4.78806092	      0.00000000	      0.00000000	    -21.99289434	    -16.34375800	     -1.61286141	     61.36919445	    -14.57164259	      8.35154913	    130.56020742	     30.95123171	      0.00000000	      0.00000000	    -67.73416947	    -13.88083405	    -40.09239783	     74.82617977	     85.14453734	      0.00000000	      0.00000000
      2.10500005	    -20.69227878	      7.74091226	     -5.91747807	     -3.14407256	      0.96792608	      0.33352895	    -10.73501715	     -6.61979465	      6.88794067	     27.25718911	     27.25718911	    -38.36429704	      0.00000000	      0.00000000	     69.21123441	     -5.95807112	     -7.70064498	     58.75786575	     58.75786575	      3.91777238	      0.00000000	      0.00000000	    -23.21166371	    -16.36209427	     -1.28938289	     57.35642618	    -14.60379783	      7.72099524	    129.13690864	     30.89085725	      0.00000000	      0.00000000	    -64.83511267	    -15.03889200	    -38.77052470	     75.46023484	     84.15242460	      0.00000000	      0.00000000
      2.11000005	    -19.97174906	      7.51483009	     -5.94349333	     -3.11432987	      0.97327478	      0.33386746	    -10.15286031	     -6.14727199	      6.82299212	     31.51644818	     31.51644818	    -37.82589488	      0.00000000	      0.00000000	     66.70494396	     -6.19753356	     -8.96579762	     54.84963324	     54.84963324	      2.94911366	      0.00000000	      0.00000000	    -24.40472844	    -16.32353100	     -0.90768030	     53.30706135	    -14.58864130	      6.77787949	    127.27837583	     30.76383639	      0.00000000	      0.00000000	    -61.70935102	    -16.31002316	    -37.21755997	     76.17864779	     82.65941881	      0.00000000	      0.00000000
      2.11500005	    -19.34170533	      7.28239349	     -5.86102896	     -3.08477928	      0.97813343	      0.33391982	     -9.27644288	     -5.66199542	      6.51996798	     36.09322780	     36.09322780	    -37.09844545	      0.00000000	      0.00000000	     64.28796207	     -6.31725920	    -10.20722294	     51.24011763	     51.24011763	      1.89796122	      0.00000000	      0.00000000	    -25.52279429	    -16.20979843	     -0.51125214	     49.26167008	    -14.51573260	      5.52319497	    125.02308744	     30.54224862	      0.00000000	      0.00000000	    -58.38678259	    -17.65052027	    -35.43188090	     77.00238727	     80.35673165	      0.00000000	      0.00000000
      2.12000005	    -18.81912140	      7.03753118	     -5.63361829	     -3.05539738	      0.98238493	      0.33367390	     -8.13970565	     -5.15744583	      5.99995704	     40.86356863	     40.86356863	    -36.32056730	      0.00000000	      0.00000000	     62.01596956	     -6.31370343	    -11.38429447	     48.00782942	     48.00782942	      0.79497463	      0.00000000	      0.00000000	    -26.53706987	    -16.00308718	     -0.14151375	     45.25964613	    -14.37381759	      3.98043024	    122.40667641	     30.32458285	      0.00000000	      0.00000000	    -54.85352755	    -19.01492487	    -33.61148483	     77.76819696	     80.35520863	      0.00000000	      0.00000000
      2.12500005	    -18.40550981	      6.77440475	     -5.23704963	     -3.02615051	      0.98595859	      0.33313409	     -6.78498580	     -4.62960478	      5.28454963	     45.71909602	     45.71909602	    -35.57311225	      0.00000000	      0.00000000	     59.91843168	     -6.19291788	    -12.45948092	     45.21492689	     45.21492689	     -0.32146071	      0.00000000	      0.00000000	    -27.42685026	    -15.68752150	      0.19513030	     41.32049785	    -14.17479806	      2.18367695	    119.50804219	     29.82498658	      0.00000000	      0.00000000	    -51.25247936	    -20.36770540	    -31.11737953	     79.12861582	     70.86769431	      0.00000000	      0.00000000
      2.13000005	    -18.09160365	      6.49013061	     -4.66105276	     -2.99700575	      0.98882313	      0.33232150	     -5.25265857	     -4.08177336	      4.39401283	     50.57843736	     50.57843736	    -34.87320281	      0.00000000	      0.00000000	     58.00146075	     -5.96687531	    -13.39856266	     42.89912250	     42.89912250	     -1.40924841	      0.00000000	      0.00000000	    -28.19520658	    -15.26116063	      0.45809341	     37.48567303	    -13.90617728	      0.19014772	    116.32286815	     29.61749203	      0.00000000	      0.00000000	    -47.46046470	    -21.67119784	    -28.62990133	     80.48492090	     63.11820286	      0.00000000	      0.00000000
      2.13500005	    -17.86240640	      6.18524941	     -3.90747328	     -2.96793588	      0.99097762	      0.33126951	     -3.57637374	     -3.52524039	      3.34766124	     55.38606540	     55.38606540	    -34.19203273	      0.00000000	      0.00000000	     56.25335709	     -5.64935638	    -14.16745514	     41.07096300	     41.07096300	     -2.42955688	      0.00000000	      0.00000000	    -28.84437261	    -14.72882681	      0.63842226	     33.76923774	    -13.58643950	     -1.92695847	    112.93454856	     29.30747880	      0.00000000	      0.00000000	    -43.49954754	    -22.89144938	    -26.07429071	     81.89912284	     55.52382995	      0.00000000	      0.00000000
